<svg xmlns="http://www.w3.org/2000/svg" xmlns:xlink="http://www.w3.org/1999/xlink" preserveAspectRatio="xMidYMid meet" version="1.0" viewBox="0.0 0.0 1361.4 1941.2" zoomAndPan="magnify" style="fill: rgb(0, 0, 0);" original_string_length="1429"><g data-name="???? 2"><g data-name="???? 1"><g id="__id856_s32jyhr81k"><path d="M1292.23,1941.17H100V100H1292.23a69.22,69.22,0,0,1,69.22,69.22V1872A69.22,69.22,0,0,1,1292.23,1941.17Z" style="fill: rgb(255, 224, 143);"/></g><g id="__id857_s32jyhr81k"><path d="M1281.11,1930.06H88.92L0,1841.14,88.92,88.92,1233.34,13.56c18.74,0,83.52,82.81,96,94.91a69,69,0,0,1,21,49.67v1702.7A69.22,69.22,0,0,1,1281.11,1930.06Z" style="fill: rgb(242, 242, 242);"/></g><g id="__id858_s32jyhr81k"><path d="M1214.42,1864.48H33.35v-2.23H1214.42a68.18,68.18,0,0,0,68.11-68.11V91.45h2.22V1794.14A70.41,70.41,0,0,1,1214.42,1864.48Z" style="fill: rgb(102, 102, 102);"/></g><g id="__id859_s32jyhr81k"><path d="M1236.65,1886.71H55.58v-2.23H1236.65a68.18,68.18,0,0,0,68.11-68.11V113.68H1307V1816.37A70.41,70.41,0,0,1,1236.65,1886.71Z" style="fill: rgb(102, 102, 102);"/></g><g id="__id860_s32jyhr81k"><path d="M1258.88,1908.94H75.58v-2.22h1183.3a68.19,68.19,0,0,0,68.11-68.11V135.91h2.22v1702.7A70.41,70.41,0,0,1,1258.88,1908.94Z" style="fill: rgb(102, 102, 102);"/></g><g id="__id861_s32jyhr81k"><path d="M1192.19,1841.14H0V0H1192.19a69.22,69.22,0,0,1,69.22,69.22V1771.91A69.23,69.23,0,0,1,1192.19,1841.14Z" style="fill: rgb(255, 224, 143);"/></g><g id="__id862_s32jyhr81k"><path d="M120.58 1941.17L98.35 1941.17 0 1841.13 22.23 1841.13 120.58 1941.17z" style="fill: rgb(255, 224, 143);"/></g></g></g></svg>